<svg width="43" height="74" viewBox="0 0 43 74" fill="none" xmlns="http://www.w3.org/2000/svg">
<path d="M16.1687 50.375C16.1687 45.1437 16.6376 41.3811 17.5754 39.0871C18.5105 36.7957 20.4958 34.2937 23.5312 31.5812C26.1791 29.2562 28.1967 27.2374 29.584 25.5246C30.9738 23.8145 31.6687 21.8615 31.6687 19.6656C31.6687 17.0177 30.7814 14.8219 29.0066 13.0781C27.2293 11.3344 24.7583 10.4625 21.5937 10.4625C18.3 10.4625 15.7967 11.4635 14.084 13.4656C12.3738 15.4677 11.1635 17.5021 10.4531 19.5688L0.474976 15.3062C1.83123 11.1729 4.31768 7.58854 7.93435 4.55313C11.551 1.51771 16.1041 0 21.5937 0C28.375 0 33.5907 1.88971 37.241 5.66912C40.8886 9.44596 42.7125 13.9823 42.7125 19.2781C42.7125 22.5073 42.0189 25.2689 40.6316 27.5629C39.2418 29.8543 37.0614 32.4531 34.0906 35.3594C30.926 38.3948 29.0053 40.703 28.3285 42.284C27.6491 43.8676 27.3094 46.5646 27.3094 50.375H16.1687ZM21.5937 73.625C19.4625 73.625 17.6386 72.8668 16.1222 71.3504C14.6032 69.8314 13.8437 68.0063 13.8437 65.875C13.8437 63.7437 14.6032 61.9186 16.1222 60.3996C17.6386 58.8832 19.4625 58.125 21.5937 58.125C23.725 58.125 25.5501 58.8832 27.0691 60.3996C28.5855 61.9186 29.3437 63.7437 29.3437 65.875C29.3437 68.0063 28.5855 69.8314 27.0691 71.3504C25.5501 72.8668 23.725 73.625 21.5937 73.625Z" fill="white"/>
</svg>
